# xmcd CD database file
#
# Track frame offsets:
#	150
#	15665
#	31169
#	47790
#
# Disc length: 844 seconds
#
# Revision: 0
# Processed by: cddbd v1.5.1PL2 Copyright (c) Steve Scherf et al.
# Submitted via: CDex 1.51
#
DISCID=26034a04
DTITLE=パピーペット - ナミダボシ
DYEAR=2005
DGENRE=Anime
TTITLE0=ナミダボシ
TTITLE1=大阪フィーバー
TTITLE2=青い空
TTITLE3=ナミダボシ(オマケ)
EXTD=YEAR: 2005/11/23
EXTT0=
EXTT1=
EXTT2=
EXTT3=
PLAYORDER=
